<?xml version="1.0" encoding="UTF-8"?>
<svg id="Ebene_2" data-name="Ebene 2" xmlns="http://www.w3.org/2000/svg" viewBox="0 0 295.1 113.22">
  <defs>
    <style>
      .cls-1 {
        fill: #6e8e1d;
      }

      .cls-2 {
        fill: #1d1d1b;
      }

      .cls-3 {
        fill: #8eb624;
      }
    </style>
  </defs>
  <g id="Ebene_1-2" data-name="Ebene 1">
    <g>
      <path class="cls-3" d="M69.21,45.21l47.47-31.66-52.15,17.39c-4.02,1.34-8.37,1.34-12.39,0L0,13.55l40.1,26.74c28.72,19.15,42.73,72.93,42.73,72.93,0-36.04-10.02-56.92-16.34-66.5.94-.43,1.85-.92,2.72-1.5Z"/>
      <g>
        <path class="cls-3" d="M101.6,42.95h13.12c7.66,0,12.29,4.54,12.29,11.1v.09c0,7.43-5.78,11.28-12.98,11.28h-5.37v9.63h-7.06v-32.11ZM114.26,59.14c3.53,0,5.6-2.11,5.6-4.86v-.09c0-3.17-2.2-4.86-5.73-4.86h-5.46v9.81h5.59Z"/>
        <path class="cls-3" d="M136.25,42.95h7.06v32.11h-7.06v-32.11Z"/>
        <path class="cls-3" d="M155.02,42.95h14.68c4.08,0,7.25,1.15,9.36,3.26,1.79,1.79,2.75,4.31,2.75,7.34v.09c0,5.18-2.8,8.44-6.88,9.95l7.84,11.47h-8.26l-6.88-10.27h-5.55v10.27h-7.06v-32.11ZM169.24,58.55c3.44,0,5.41-1.84,5.41-4.54v-.09c0-3.02-2.11-4.59-5.55-4.59h-7.02v9.22h7.16Z"/>
        <path class="cls-3" d="M191.87,42.95h6.51l15.04,19.77v-19.77h6.97v32.11h-6.01l-15.55-20.41v20.41h-6.97v-32.11Z"/>
        <path class="cls-3" d="M242.8,42.72h6.51l13.76,32.34h-7.38l-2.94-7.2h-13.57l-2.94,7.2h-7.2l13.76-32.34ZM250.23,61.62l-4.26-10.41-4.26,10.41h8.53Z"/>
        <path class="cls-3" d="M275.7,62.4l-12.34-19.45h8.25l7.66,12.89,7.8-12.89h8.03l-12.34,19.31v12.8h-7.06v-12.66Z"/>
      </g>
      <g>
        <path class="cls-2" d="M101.6,87.86h4.01c2.41,0,4.01,1.28,4.01,3.39v.03c0,2.31-1.93,3.5-4.2,3.5h-2.6v3.78h-1.21v-10.7ZM105.46,93.68c1.77,0,2.94-.94,2.94-2.35v-.03c0-1.53-1.15-2.33-2.87-2.33h-2.71v4.71h2.65Z"/>
        <path class="cls-2" d="M112.84,87.4h1.18v4.63c.52-.86,1.34-1.54,2.71-1.54,1.91,0,3.03,1.28,3.03,3.16v4.91h-1.18v-4.62c0-1.47-.79-2.39-2.18-2.39s-2.37.99-2.37,2.48v4.53h-1.18v-11.16Z"/>
        <path class="cls-2" d="M129.18,90.65h1.25l-3.32,8.16c-.67,1.64-1.44,2.23-2.63,2.23-.66,0-1.15-.14-1.68-.4l.4-.93c.38.2.73.29,1.24.29.7,0,1.15-.37,1.62-1.48l-3.59-7.87h1.3l2.88,6.59,2.54-6.59Z"/>
        <path class="cls-2" d="M132.56,97.55l.6-.84c.86.64,1.8,1.01,2.74,1.01s1.64-.49,1.64-1.25v-.03c0-.8-.93-1.1-1.97-1.39-1.24-.35-2.61-.78-2.61-2.23v-.03c0-1.36,1.13-2.26,2.69-2.26.96,0,2.03.34,2.84.87l-.54.89c-.73-.47-1.57-.77-2.34-.77-.93,0-1.53.49-1.53,1.15v.03c0,.75.98,1.04,2.03,1.36,1.22.37,2.54.84,2.54,2.26v.03c0,1.5-1.24,2.37-2.81,2.37-1.13,0-2.38-.44-3.27-1.16Z"/>
        <path class="cls-2" d="M142.09,87.63h1.35v1.3h-1.35v-1.3ZM142.17,90.65h1.18v7.9h-1.18v-7.9Z"/>
        <path class="cls-2" d="M146.82,94.64v-.03c0-2.23,1.74-4.13,4.13-4.13s4.11,1.86,4.11,4.1v.03c0,2.23-1.76,4.13-4.14,4.13s-4.1-1.86-4.1-4.1ZM153.85,94.64v-.03c0-1.7-1.27-3.09-2.94-3.09s-2.89,1.39-2.89,3.06v.03c0,1.7,1.25,3.07,2.92,3.07s2.9-1.38,2.9-3.04Z"/>
        <path class="cls-2" d="M158.82,96.46v-4.77h-1.1v-1.04h1.1v-2.39h1.18v2.39h2.51v1.04h-2.51v4.62c0,.96.53,1.32,1.33,1.32.4,0,.73-.08,1.15-.28v1.01c-.41.21-.86.34-1.42.34-1.27,0-2.23-.63-2.23-2.23Z"/>
        <path class="cls-2" d="M165.82,87.4h1.18v4.63c.52-.86,1.34-1.54,2.71-1.54,1.91,0,3.03,1.28,3.03,3.16v4.91h-1.18v-4.62c0-1.47-.79-2.39-2.18-2.39s-2.37.99-2.37,2.48v4.53h-1.18v-11.16Z"/>
        <path class="cls-2" d="M175.97,94.63v-.03c0-2.28,1.61-4.11,3.79-4.11,2.34,0,3.68,1.86,3.68,4.17,0,.15,0,.25-.01.38h-6.27c.17,1.71,1.38,2.67,2.78,2.67,1.08,0,1.85-.44,2.49-1.12l.73.66c-.79.89-1.76,1.48-3.26,1.48-2.17,0-3.94-1.67-3.94-4.11ZM182.25,94.17c-.12-1.43-.95-2.69-2.52-2.69-1.38,0-2.41,1.15-2.57,2.69h5.09Z"/>
        <path class="cls-2" d="M186.74,90.65h1.18v2.06c.58-1.31,1.73-2.26,3.22-2.2v1.27h-.09c-1.73,0-3.13,1.24-3.13,3.62v3.15h-1.18v-7.9Z"/>
        <path class="cls-2" d="M193.18,96.26v-.03c0-1.67,1.38-2.55,3.38-2.55,1.01,0,1.73.14,2.43.34v-.27c0-1.42-.87-2.16-2.35-2.16-.93,0-1.67.25-2.4.58l-.35-.96c.87-.4,1.73-.66,2.88-.66s1.97.29,2.55.87c.54.54.81,1.3.81,2.31v4.83h-1.13v-1.19c-.55.72-1.47,1.36-2.86,1.36-1.47,0-2.95-.84-2.95-2.46ZM199.01,95.65v-.76c-.58-.17-1.36-.34-2.32-.34-1.48,0-2.31.64-2.31,1.64v.03c0,.99.92,1.58,1.99,1.58,1.45,0,2.64-.89,2.64-2.14Z"/>
        <path class="cls-2" d="M203.86,90.65h1.18v1.59c.64-.95,1.57-1.76,3.03-1.76,1.9,0,3.78,1.5,3.78,4.1v.03c0,2.58-1.87,4.11-3.78,4.11-1.47,0-2.42-.8-3.03-1.68v3.96h-1.18v-10.35ZM210.63,94.63v-.03c0-1.86-1.28-3.06-2.78-3.06s-2.86,1.24-2.86,3.04v.03c0,1.83,1.39,3.06,2.86,3.06s2.78-1.13,2.78-3.04Z"/>
        <path class="cls-2" d="M215.27,87.63h1.34v1.3h-1.34v-1.3ZM215.34,90.65h1.18v7.9h-1.18v-7.9Z"/>
        <path class="cls-2" d="M220,94.63v-.03c0-2.28,1.61-4.11,3.79-4.11,2.34,0,3.68,1.86,3.68,4.17,0,.15,0,.25-.01.38h-6.27c.17,1.71,1.38,2.67,2.78,2.67,1.08,0,1.85-.44,2.49-1.12l.73.66c-.79.89-1.76,1.48-3.25,1.48-2.17,0-3.95-1.67-3.95-4.11ZM226.28,94.17c-.12-1.43-.95-2.69-2.52-2.69-1.38,0-2.41,1.15-2.57,2.69h5.09Z"/>
      </g>
      <circle class="cls-3" cx="57.33" cy="10.19" r="10.19"/>
      <path class="cls-1" d="M63.86,31.11c-3.83,1.13-7.91,1.1-11.71-.17L0,13.55l30.37,20.25c9.03,3.15,23.42.17,33.49-2.7Z"/>
    </g>
  </g>
</svg>